<svg width="24" height="24" viewBox="0 0 24 24" fill="none" xmlns="http://www.w3.org/2000/svg">
<path fill-rule="evenodd" clip-rule="evenodd" d="M11.9991 4.74805C7.99503 4.74805 4.74907 7.99322 4.74907 11.998C4.74907 16.002 7.99413 19.248 11.9991 19.249C15.6638 19.249 18.6935 16.5306 19.1814 13H12C11.4477 13 11 12.5523 11 12C11 11.4477 11.4477 11 12 11H20.25C20.5153 11 20.7696 11.1054 20.9572 11.293C21.1447 11.4806 21.2501 11.735 21.25 12.0002C21.249 17.1087 17.1075 21.249 11.9991 21.249C6.88972 21.2479 2.74907 17.1065 2.74907 11.998C2.74907 6.8885 6.89061 2.74805 11.9991 2.74805C14.7606 2.74805 17.3768 3.98216 19.1341 6.11154C19.4856 6.5375 19.4253 7.16778 18.9993 7.51932C18.5734 7.87085 17.9431 7.81051 17.5915 7.38455C16.2139 5.71518 14.1632 4.74805 11.9991 4.74805Z" fill="#2D2A28"/>
</svg>
