<svg width="24" height="24" viewBox="0 0 24 24" fill="none" xmlns="http://www.w3.org/2000/svg">
<path fill-rule="evenodd" clip-rule="evenodd" d="M8.90641 8.90641C9.72688 8.08594 10.8397 7.625 12 7.625C13.1603 7.625 14.2731 8.08594 15.0936 8.90641C15.9141 9.72688 16.375 10.8397 16.375 12C16.375 13.1603 15.9141 14.2731 15.0936 15.0936C14.2731 15.9141 13.1603 16.375 12 16.375C10.8397 16.375 9.72688 15.9141 8.90641 15.0936C8.08594 14.2731 7.625 13.1603 7.625 12C7.625 10.8397 8.08594 9.72688 8.90641 8.90641ZM12 9.625C11.3701 9.625 10.766 9.87522 10.3206 10.3206C9.87522 10.766 9.625 11.3701 9.625 12C9.625 12.6299 9.87522 13.234 10.3206 13.6794C10.766 14.1248 11.3701 14.375 12 14.375C12.6299 14.375 13.234 14.1248 13.6794 13.6794C14.1248 13.234 14.375 12.6299 14.375 12C14.375 11.3701 14.1248 10.766 13.6794 10.3206C13.234 9.87522 12.6299 9.625 12 9.625Z" fill="currentColor"/>
<path d="M15.8143 6.06434C16.0956 5.78304 16.4772 5.625 16.875 5.625C17.2728 5.625 17.6544 5.78304 17.9357 6.06434C18.217 6.34564 18.375 6.72718 18.375 7.125C18.375 7.52282 18.217 7.90436 17.9357 8.18566C17.6544 8.46696 17.2728 8.625 16.875 8.625C16.4772 8.625 16.0956 8.46696 15.8143 8.18566C15.533 7.90436 15.375 7.52282 15.375 7.125C15.375 6.72718 15.533 6.34564 15.8143 6.06434Z" fill="currentColor"/>
<path fill-rule="evenodd" clip-rule="evenodd" d="M2 7.5C2 4.46243 4.46243 2 7.5 2H16.5C19.5376 2 22 4.46243 22 7.5V16.5C22 19.5376 19.5376 22 16.5 22H7.5C4.46243 22 2 19.5376 2 16.5V7.5ZM7.5 4C5.567 4 4 5.567 4 7.5V16.5C4 18.433 5.567 20 7.5 20H16.5C18.433 20 20 18.433 20 16.5V7.5C20 5.567 18.433 4 16.5 4H7.5Z" fill="currentColor"/>
</svg>
