<svg viewBox="0 0 36 36" fill="none" xmlns="http://www.w3.org/2000/svg">
<path d="M8.87273 19.0802C3.83465 21.6271 0.791432 24.8392 1.48176 27.4155C2.47136 31.1088 10.7585 32.0971 19.9915 29.6231C29.2246 27.1492 35.9073 22.1496 34.9177 18.4564C34.4028 16.535 31.9129 15.3457 28.3422 14.9952C28.2963 15.2247 28.2443 15.4516 28.1869 15.6758C28.3511 15.6911 28.5129 15.7083 28.6721 15.7273C30.2953 15.9209 31.6194 16.2966 32.5771 16.8145C33.5331 17.3314 34.0667 17.9554 34.2489 18.6356C34.4312 19.3158 34.2811 20.123 33.7117 21.0486C33.1412 21.976 32.1823 22.9634 30.8734 23.9426C28.2589 25.8987 24.3656 27.7344 19.8124 28.9544C15.2591 30.1745 10.9696 30.5313 7.72734 30.1446C6.10416 29.951 4.78 29.5753 3.8223 29.0575C2.86636 28.5406 2.33274 27.9165 2.15048 27.2363C1.96823 26.5562 2.11834 25.7489 2.68775 24.8233C3.25822 23.896 4.21713 22.9085 5.52605 21.9293C6.56562 21.1516 7.80735 20.3928 9.21235 19.6843C9.09625 19.4867 8.98285 19.2853 8.87273 19.0802Z" fill="#1509C2"/>
<path fill-rule="evenodd" clip-rule="evenodd" d="M18.3462 15.6521C19.9882 15.6521 21.3317 14.2976 21.3317 12.642C21.3317 10.9765 19.9882 9.632 18.3462 9.632C16.6941 9.632 15.3606 10.9765 15.3606 12.642C15.3606 14.2976 16.6941 15.6521 18.3462 15.6521ZM20.501 12.642C20.501 13.8451 19.523 14.8213 18.3462 14.8213C17.1611 14.8213 16.1913 13.8469 16.1913 12.642C16.1913 11.4289 17.1593 10.4628 18.3462 10.4628C19.5248 10.4628 20.501 11.4307 20.501 12.642Z" fill="#1509C2"/>
<path fill-rule="evenodd" clip-rule="evenodd" d="M10.3846 12.5719C10.3846 10.5151 11.2206 8.55855 12.7134 7.11373C14.2062 5.65888 16.2264 4.84618 18.3362 4.84618C20.446 4.84618 22.4662 5.65889 23.959 7.1037C25.4518 8.54852 26.2878 10.505 26.2878 12.5519L26.3077 12.582C26.3077 19.5251 18.3462 24.9231 18.3462 24.9231C18.3462 24.9231 10.3846 19.5151 10.3846 12.5719ZM25.457 12.5519C25.457 12.611 25.4633 12.6696 25.4756 12.7268C25.4211 15.8333 23.6226 18.669 21.7087 20.8013C20.7481 21.8714 19.7852 22.7344 19.0621 23.3298C18.7818 23.5606 18.5385 23.7504 18.3466 23.8956C18.1546 23.7501 17.9111 23.5599 17.6307 23.3287C16.9075 22.7323 15.9446 21.868 14.9839 20.7966C13.0401 18.6286 11.2154 15.7353 11.2154 12.5719C11.2154 10.7432 11.9578 9.00113 13.2911 7.71069L13.2932 7.70869C14.6281 6.40767 16.4392 5.67695 18.3362 5.67695C20.2334 5.67695 22.0456 6.40793 23.3813 7.70066C24.715 8.99151 25.457 10.7337 25.457 12.5519Z" fill="#1509C2"/>
</svg>