<svg viewBox="0 0 103 44" fill="none" xmlns="http://www.w3.org/2000/svg">
<g clip-path="url(#clip0_825_2240)">
<path d="M16.0838 26.3594C14.1512 27.097 12.0363 27.5395 9.9944 27.392C7.66076 27.2076 5.25419 26.175 3.6498 24.4785C2.59237 23.409 1.75372 22.0813 1.20677 20.6799C0.295189 18.4302 0.00348416 15.8855 0.0399474 13.4514C0.0399474 13.4146 0.0399474 13.3408 0.0399474 13.3039C-0.0694422 11.8287 0.0399479 10.3535 0.441043 8.95209C0.951528 7.1081 2.04542 5.33787 3.39456 3.97331C5.69174 1.72364 8.97343 0.285327 12.1457 0.0271679C14.0054 -0.0834717 15.9744 0.137808 17.7611 0.801645C19.1467 1.35484 20.4229 2.1662 21.5168 3.23572C21.9543 3.67827 23.1212 4.89531 23.1576 5.52227C23.1941 6.66554 21.9179 7.32938 20.7875 7.44002C20.277 7.51378 19.7301 7.51378 19.2925 7.32938C19.0373 7.21874 18.8185 7.1081 18.6726 6.88682C18.3445 6.51802 18.0163 6.11234 17.6517 5.78043C14.5888 3.16196 10.1038 4.34211 7.55137 7.4769C6.38455 8.87833 5.54589 10.7223 5.47296 12.5663C5.36357 14.9266 5.8376 17.4345 7.00442 19.4629C7.77015 20.8274 8.93697 22.0444 10.3226 22.7083C11.854 23.3721 13.7866 23.3352 15.318 22.6345C16.3755 22.192 18.6726 20.7168 18.9643 19.5735C19.2561 18.2458 18.3445 16.955 17.0318 16.7337C16.7401 16.66 15.1722 16.5862 14.8805 16.4756C14.4794 16.3649 14.0418 16.033 13.896 15.6273C13.7137 14.9635 13.896 14.189 14.2606 13.599C14.37 13.4146 14.7346 12.972 14.9534 12.9351C15.9379 12.7507 20.4593 12.7876 21.4803 12.8614C22.0637 12.9351 22.6836 13.0089 23.1941 13.267C23.3764 13.3777 23.8869 13.7465 23.9963 13.9678C24.0327 14.0415 24.1057 14.1153 24.1057 14.189C24.0692 14.3734 24.1057 14.521 24.1421 14.6685C24.1786 15.8486 24.1057 17.0288 24.1057 18.2089C24.0692 20.4955 23.9598 22.8189 23.7046 25.1055C23.6681 25.3267 23.7046 25.5112 23.6316 25.7324C23.5587 26.0275 23.3035 26.2856 23.0482 26.4331C22.6471 26.6175 21.5897 26.6544 21.1886 26.5069C20.8969 26.3963 20.6052 26.2119 20.3864 26.0275C20.2041 25.8431 19.5113 25.8799 19.2561 25.8799C18.1986 25.8431 17.0683 25.9906 16.0838 26.3594ZM46.2899 26.7651C46.0346 26.8757 45.7794 26.8388 45.4877 26.8388C40.0182 26.8388 34.5487 26.8388 29.0792 26.8388C28.4958 26.8388 27.9489 26.1381 27.803 25.5849C27.6936 25.2899 27.6207 24.958 27.6207 24.626C27.6207 17.4713 27.6207 10.3535 27.6207 3.23572C27.6207 3.05132 27.6572 2.3506 27.7301 2.1662C28.0218 1.53924 28.9334 0.838524 29.5897 0.838524C31.34 0.838524 42.206 0.838524 43.9562 0.838524C44.9772 0.801644 46.0711 1.53924 46.1805 2.57188C46.3263 3.78891 45.3418 4.74779 44.1386 4.89531C43.8833 4.93219 43.6645 4.89531 43.4093 4.89531C40.6016 4.89531 37.7575 4.89531 34.9134 4.89531C34.6217 4.89531 33.9289 5.33787 33.7101 5.55914C33.3454 5.92794 33.0902 6.44426 32.9808 6.99746C32.7256 8.17762 33.0902 9.68969 34.0018 10.501C34.3664 10.833 34.8404 11.128 35.3145 11.128C37.7575 11.128 40.2005 11.128 42.6436 11.128C43.227 11.128 43.8468 11.1649 44.3938 11.3862C44.7949 11.5337 45.1231 11.8287 45.3783 12.1606C45.9252 12.7876 45.7429 14.0784 45.1595 14.6316C44.7584 15.0373 44.0656 15.1848 43.5187 15.1479C42.4612 15.111 36.3719 15.1479 35.3145 15.1479C34.804 15.1479 33.8924 15.8486 33.6007 16.2543C32.9808 17.0657 32.7256 18.2089 32.7985 19.2416C32.8714 20.0161 33.1267 20.8274 33.5278 21.4912C33.8559 22.1182 34.9863 23.0771 35.7155 23.0771C38.9972 23.0771 42.3154 23.0771 45.5971 23.0771C45.8159 23.0771 45.9982 23.0771 46.1805 23.114C47.639 23.6303 47.7119 26.2119 46.2899 26.7651ZM66.0224 26.3594C64.5274 27.0601 62.8501 27.3183 61.2092 27.2814C59.6049 27.2076 58.0005 27.1339 56.469 26.6175C54.4271 25.8799 52.531 24.5154 51.1454 22.8189C50.7808 22.3395 50.4161 21.7863 50.2338 21.1593C49.9786 20.2742 50.0515 19.3153 49.9421 18.3933C49.9421 18.3565 49.9057 18.2458 49.9057 18.2089C49.9057 13.0458 49.9057 7.88258 49.9057 2.75628C49.9057 1.94492 50.2703 1.31796 50.9631 0.875405C51.3642 0.654126 52.7133 0.432847 53.1874 0.506607C54.026 0.617246 54.9376 1.0598 55.3387 1.7974C55.5575 2.12932 55.7398 2.535 55.7398 2.94068C55.7398 8.14074 55.7398 13.3039 55.7398 18.504C55.7398 18.7621 55.7762 19.0572 55.8856 19.3153C56.3596 20.2742 57.1618 21.1593 58.0005 21.8232C59.0944 22.6345 60.6258 22.9664 61.975 22.8189C62.6678 22.7452 63.3606 22.4132 63.9075 21.9338C64.6003 21.3437 66.2047 19.7579 66.2047 18.8359C66.2047 13.8571 66.2047 8.87833 66.2047 3.86267C66.2047 3.75203 66.1318 3.05132 66.0953 2.94068C66.0589 2.05556 66.6058 1.17044 67.408 0.727885C68.1737 0.322207 70.0333 0.359086 70.7991 0.764764C71.4919 1.13356 71.9659 1.9818 71.9659 2.7194C71.9659 8.25138 71.9659 13.8202 71.9659 19.3522C71.9659 19.426 71.893 19.6841 71.8565 19.7579C71.6377 20.6061 71.3096 21.4175 70.7991 22.1182C70.6532 22.3395 69.6687 23.5565 69.5229 23.7409C68.9395 24.4785 68.2831 25.1424 67.4809 25.5849C67.2986 25.6955 66.2047 26.2856 66.0224 26.3594ZM102.562 25.8799C102.198 26.47 101.213 27.0232 100.593 26.8388C99.9006 26.6175 99.2443 26.0643 98.9891 25.4005C98.9526 25.253 98.9526 25.0686 98.9526 24.8842C98.9526 20.2373 98.9526 15.6273 98.9526 10.9805C98.9526 10.5379 98.2962 9.35777 98.0045 9.02585C97.7128 8.73081 97.1294 8.47265 96.7648 8.65705C96.1814 8.91521 95.525 10.3535 95.3427 10.9436C94.0665 15.6273 92.8268 20.2742 91.5506 24.958C91.3682 25.5849 90.3473 26.2487 89.7274 26.3963C89.1075 26.5069 88.4147 26.2487 87.7948 25.9537C87.3573 25.6956 86.8468 25.4005 86.701 24.9211C85.3883 20.1636 84.1121 15.4429 82.7994 10.7223C82.5806 9.94785 82.1795 9.06273 81.4502 8.69393C81.3773 8.65705 81.195 8.54642 81.1221 8.5833C80.6116 8.73082 80.174 9.24713 80.0282 9.76345C79.9553 9.91097 79.8094 10.5748 79.8094 10.7223C79.8094 15.2217 79.8094 19.721 79.8094 24.2204C79.8094 24.5892 79.7 24.958 79.5177 25.2899C79.3354 25.5849 78.4967 26.2487 78.1686 26.3594C77.257 26.7282 76.2725 26.1012 75.9443 25.1792C75.8349 24.8473 75.7985 24.5154 75.7985 24.1466C75.8349 21.6019 75.8349 6.00171 75.8349 3.42012C75.8349 3.34636 75.762 2.86692 75.762 2.79316C75.762 2.38748 75.8714 1.9818 76.0902 1.68676C76.4548 1.20732 77.1111 0.949164 77.6945 0.875405C78.6061 0.764765 79.5177 0.875405 80.4293 0.949164C81.0127 1.02292 81.5961 1.13356 82.1795 1.31796C82.7265 1.53924 83.3828 2.12932 83.6745 2.64564C83.7474 2.7194 83.8204 3.0882 83.8204 3.16196C84.9872 7.73506 86.1175 12.345 87.2844 16.9181C87.5031 17.7295 87.9042 18.6146 88.6335 19.0572C88.9252 19.2047 89.3628 19.2785 89.6545 19.1309C90.165 18.8728 90.4931 18.2827 90.7484 17.7664C90.8213 17.6557 91.0401 17.1394 91.0765 17.0288C92.3528 12.2713 93.6654 7.51378 94.9781 2.75628C95.0875 2.27684 95.5615 1.90804 95.9991 1.72364C96.5825 1.46548 97.2024 1.28108 97.8222 1.20732C98.1139 1.17044 99.9006 1.20732 100.229 1.17044C100.849 1.13356 101.505 1.20732 102.125 1.35484C102.49 1.46548 102.745 1.7974 102.927 2.12932C103 2.31372 103 2.57188 103 2.79316C103 9.98473 103 17.2132 103 24.4416C103 24.7367 103 25.0686 102.891 25.3268C102.854 25.4374 102.635 25.8062 102.562 25.8799Z" fill="#2D2A28"/>
<path d="M36.3301 43.7138C35.9125 43.8704 35.4426 43.9574 35.0076 43.9052C34.5726 43.8356 34.1375 43.6442 33.7721 43.4006C33.7373 43.3832 33.5633 43.3658 33.5285 43.3484C33.3023 43.3136 33.0239 43.2788 32.8324 43.4006C32.6758 43.4876 32.5018 43.5746 32.3278 43.6268C31.8406 43.7312 31.0401 43.766 30.7791 43.331C30.6921 43.157 30.7095 42.9308 30.7095 42.7394C30.7095 39.5379 30.7095 36.3363 30.7095 33.1522C30.7095 32.8912 30.8661 32.6302 31.0749 32.4736C31.3359 32.2474 31.9798 32.1256 32.293 32.2822C32.5018 32.3692 32.7454 32.491 32.8324 32.6998C32.9195 32.926 32.8847 33.8308 32.8673 34.0744C32.8498 34.2136 32.815 34.6834 32.8498 34.7878C32.9021 34.9096 32.9369 35.0314 33.0065 35.1532C33.0935 35.3098 33.2153 35.5186 33.3893 35.5708C33.6677 35.6404 34.6944 35.2054 34.9728 35.1532C35.3556 35.0836 35.7559 35.1358 36.1213 35.2228C36.8522 35.4142 37.5308 35.8492 38.0528 36.3885C38.4009 36.7365 38.6619 37.2237 38.7837 37.7109C38.8707 38.0937 38.9229 38.4939 38.9577 38.8941C38.9925 39.4683 38.9925 40.0425 38.8881 40.5819C38.7837 41.1735 38.6445 41.765 38.3661 42.3044C38.1572 42.722 37.8266 43.1222 37.3916 43.3136C37.2698 43.3658 36.4693 43.6616 36.3301 43.7138ZM32.9021 39.9033C33.0761 41.1561 33.9983 42.4436 35.1816 41.9738C35.6863 41.765 36.0865 41.2779 36.3127 40.7733C36.6433 40.0077 36.7129 39.0681 36.4867 38.2677C36.3475 37.8153 36.1387 37.3455 35.7907 37.0323C35.5297 36.7887 35.199 36.6147 34.851 36.6147C34.4334 36.5973 34.0157 36.8061 33.7199 37.1019C33.0413 37.7805 32.7802 38.9289 32.9021 39.9033ZM42.8012 32.7172C43.0274 33.4654 42.1922 33.97 41.4265 33.9178C40.6608 33.8482 39.9126 33.2392 40.2258 32.5432C40.5216 31.8994 41.3917 31.7428 42.0355 31.9864C42.3662 32.1256 42.7142 32.3866 42.8012 32.7172ZM41.8093 43.5746C41.4613 43.6094 41.0785 43.592 40.7652 43.4354C40.5738 43.3484 40.3824 43.2266 40.278 43.0352C40.191 42.8612 40.1562 42.6524 40.1562 42.461C40.1562 40.2513 40.1562 38.0589 40.1562 35.8666C40.1562 35.5012 40.5216 35.0836 40.8697 34.9966C41.0959 34.9444 41.3221 34.9618 41.5483 34.9618C42.1574 34.9618 42.8882 35.2402 42.8882 35.8492C42.8882 38.0763 42.8882 40.2861 42.8882 42.4958C42.8882 42.5306 42.8882 42.5654 42.8882 42.6176C42.8708 42.983 42.575 43.4006 42.2096 43.5224C42.0877 43.5572 41.9485 43.5572 41.8093 43.5746ZM48.8075 43.8008C47.6764 44.0444 46.5105 43.9052 45.4838 43.3832C44.9618 43.1396 44.0569 42.4436 44.0569 41.8868C44.0569 41.7476 44.1091 41.6259 44.1961 41.5215C44.4572 41.1735 45.1184 40.9299 45.5186 41.0865C45.6231 41.1387 45.6927 41.2431 45.7797 41.3127C46.0755 41.5389 46.4409 41.678 46.8063 41.7476C47.2762 41.8694 47.7982 41.9042 48.2681 41.7824C48.6335 41.7129 49.0859 41.4519 49.0511 41.0865C49.0163 40.7907 48.7553 40.5297 48.5117 40.3905C47.9896 40.1121 47.3458 40.0947 46.7715 39.9555C46.0929 39.7815 45.4316 39.4509 44.927 38.9637C44.5442 38.5809 44.2309 38.0589 44.1787 37.5195C44.1265 37.0845 44.2135 36.6495 44.4398 36.2493C44.7356 35.7448 45.2402 35.362 45.7623 35.101C46.5975 34.7008 47.5894 34.5964 48.5117 34.7182C49.3643 34.8052 50.2518 35.188 50.8956 35.7796C51.3481 36.1797 50.8782 36.8235 50.304 36.9627C50.0082 37.0497 49.6427 36.9627 49.3817 36.7887C49.2251 36.7017 48.5813 36.4929 48.4073 36.4755C47.8852 36.4059 47.137 36.3363 47.0326 36.8409C46.9804 37.0845 46.9804 37.3803 47.137 37.5717C47.4154 37.8675 47.8852 37.9719 48.2854 38.0067C49.1207 38.0763 49.9734 38.3895 50.6172 38.9115C51.0697 39.2595 51.4351 39.7641 51.6091 40.3035C51.7483 40.7559 51.7135 41.2953 51.5569 41.7303C51.3481 42.287 50.9478 42.7742 50.4606 43.1048C49.956 43.4354 49.3991 43.679 48.8075 43.8008ZM56.3489 43.9748C55.6528 44.0444 54.9045 43.9226 54.3303 43.5572C53.9475 43.331 53.6691 42.9134 53.5472 42.5132C53.5124 42.4262 53.4428 42.113 53.4428 42.026C53.4428 40.5993 53.4428 39.1725 53.4428 37.7283C53.4428 37.4499 52.5902 36.8061 52.451 36.5451C52.364 36.3711 52.3988 36.1449 52.451 35.9535C52.6076 35.5012 53.06 35.2054 53.2688 34.7878C53.4602 34.405 53.4254 33.9352 53.5298 33.5176C53.582 33.3436 53.7387 33.1696 53.8953 33.0826C54.3129 32.8912 54.7827 32.7868 55.2352 32.8216C55.4788 32.839 55.7572 32.9608 55.879 33.1696C55.966 33.3088 55.9834 33.883 55.9834 34.0396C55.9834 34.1962 55.966 34.753 56.0356 34.8922C56.0704 34.9618 56.14 35.014 56.2096 35.0488C56.4011 35.1532 57.1841 35.5882 57.3233 35.7447C57.5147 35.9883 57.5147 36.3537 57.3233 36.5973C57.1667 36.7887 56.9231 36.8931 56.7143 37.0149C56.4359 37.2063 56.1922 37.5021 56.0878 37.8327C56.0878 37.8675 56.053 37.9893 56.053 38.0241C56.053 38.9811 56.053 39.9555 56.053 40.9299C56.053 41.1909 56.3314 41.6433 56.5751 41.7651C56.8709 41.9043 57.2015 42.0434 57.3929 42.3044C57.5321 42.4784 57.5147 42.7568 57.5321 42.983C57.5321 43.2092 57.4451 43.4528 57.3059 43.6268C57.0971 43.8878 56.6795 43.9226 56.3489 43.9748ZM60.681 43.5224C60.2808 43.8008 59.3933 43.7312 58.9931 43.4702C58.7669 43.331 58.5059 42.8438 58.5059 42.5828C58.5059 41.7824 58.5233 36.8061 58.5233 36.0231C58.5233 35.8317 58.7147 35.3794 58.8539 35.2576C59.0105 35.1184 59.2367 35.0488 59.4282 35.014C59.6718 34.9966 59.9154 34.9966 60.159 35.0314C60.3504 35.0488 60.5418 35.0836 60.681 35.188C60.7681 35.2576 60.8203 35.3446 60.9073 35.4142C61.0465 35.5186 61.2553 35.5012 61.4293 35.5186C61.7773 35.5186 62.9432 35.3272 63.239 35.5012C63.3086 35.536 63.3783 35.623 63.3957 35.71C63.4827 35.9536 63.3956 36.6843 63.2912 36.9279C63.2216 37.0845 63.065 37.2063 62.9084 37.2759C62.5778 37.4499 62.2124 37.5369 61.8991 37.7283C61.5511 37.9719 61.2031 38.3025 61.0987 38.7027C61.0813 38.7897 61.1161 39.2943 61.1161 39.3813C61.1161 39.4857 61.0465 40.0425 61.0465 40.1295C61.0465 40.9821 61.0465 41.8346 61.0465 42.6872C61.0465 42.9134 60.8725 43.4006 60.681 43.5224ZM69.0007 43.853C68.3743 43.9574 67.7304 43.853 67.104 43.7312C66.4775 43.6094 65.8511 43.331 65.3812 42.9134C64.894 42.4958 64.5286 41.9042 64.3198 41.2953C63.8847 40.0947 63.9543 38.6505 64.4068 37.4673C64.72 36.6321 65.3464 35.8492 66.1121 35.3968C66.7385 35.0314 67.5216 34.9096 68.2524 34.84C68.5309 34.8052 68.8093 34.8052 69.0877 34.84C69.3835 34.8922 69.6794 34.927 69.9752 35.014C72.307 35.71 73.2814 38.5287 72.6898 40.8777C72.5158 41.5215 72.2199 42.1652 71.7849 42.6698C71.5239 42.9656 71.2107 43.2092 70.88 43.4006C70.358 43.6964 69.749 43.8356 69.1573 43.853C69.1399 43.853 69.0181 43.853 69.0007 43.853ZM66.7211 40.8777C67.6782 41.9738 69.3661 41.9564 70.2884 40.8603C71.4543 39.4857 70.6538 37.3281 68.8789 37.0671C66.7211 36.7365 65.3116 39.2421 66.7211 40.8777Z" fill="#2D2A28"/>
</g>
<defs>
<clipPath id="clip0_825_2240">
<rect width="103" height="44" fill="white"/>
</clipPath>
</defs>
</svg>
