<svg viewBox="0 0 34 24" fill="none" xmlns="http://www.w3.org/2000/svg">
<g clip-path="url(#clip0_545_21793)">
<path d="M3.78159 22.0765C1.87493 20.1353 0.866592 17.9647 0.866592 14.4529C0.866592 8.27647 5.35826 2.73529 11.9216 0L13.5533 2.41765C7.42993 5.59412 6.23826 9.72353 5.76159 12.3353C6.73326 11.8412 8.01659 11.6647 9.28159 11.7706C12.5816 12.0529 15.1849 14.6647 15.1849 17.9118C15.1849 21.3176 12.3066 24.0882 8.74993 24.0882C6.76993 24.0882 4.89993 23.2059 3.70826 22.0059L3.78159 22.0765ZM22.0966 22.0765C20.1899 20.1353 19.1816 17.9647 19.1816 14.4529C19.1816 8.27647 23.6733 2.73529 30.2366 0L31.8683 2.41765C25.7449 5.59412 24.5533 9.72353 24.0766 12.3353C25.0483 11.8412 26.3499 11.6647 27.5966 11.7706C30.8966 12.0529 33.4999 14.6647 33.4999 17.9118C33.4999 21.3176 30.6216 24.0882 27.0833 24.0882C25.1033 24.0882 23.2333 23.2059 22.0416 22.0059L22.0966 22.0765Z" fill="#FF4F0A"/>
</g>
<defs>
<clipPath id="clip0_545_21793">
<rect width="33" height="24" fill="white" transform="translate(0.5)"/>
</clipPath>
</defs>
</svg>
