<svg width="24" height="24" viewBox="0 0 24 24" fill="none" xmlns="http://www.w3.org/2000/svg">
<path d="M10.2032 7.09645C10.0017 6.69285 9.55501 6.47408 9.11266 6.5624C7.59323 6.86574 6.49865 8.19999 6.5 9.75093C6.50431 14.0278 9.97041 17.4939 14.2476 17.4999C15.7978 17.5048 17.1358 16.4137 17.4443 14.8953C17.5344 14.452 17.3157 14.0034 16.911 13.8014L14.7547 12.7252C14.4338 12.565 14.0516 12.589 13.7532 12.788L12.4962 13.6265C11.5584 13.1971 10.8068 12.4455 10.3783 11.5089L11.2162 10.2548C11.4156 9.95636 11.4397 9.57389 11.2794 9.2527L10.2032 7.09645Z" fill="#2D2A28"/>
<path fill-rule="evenodd" clip-rule="evenodd" d="M17.01 3.34681C12.2298 0.580185 6.11223 2.21242 3.34554 6.99247C1.62898 9.95719 1.5551 13.5839 3.12368 16.6063L2.08873 19.6933C1.78252 20.6097 2.2769 21.6011 3.19372 21.9074L3.19787 21.9088C3.55537 22.0265 3.93989 22.0259 4.29604 21.9094L7.39212 20.8768C12.1076 23.3301 17.9658 21.658 20.6559 17.0112C23.4214 12.2311 21.7892 6.11349 17.01 3.34681ZM18.9247 16.0096C16.7134 19.8292 11.8264 21.1361 8.00481 18.9324C7.75515 18.7826 7.45164 18.7486 7.17393 18.8413L4.14513 19.8514L5.15897 16.8274C5.25022 16.5552 5.22011 16.257 5.07633 16.0086C3.64137 13.5293 3.64155 10.4726 5.07643 7.99448C7.28978 4.17028 12.184 2.86445 16.0081 5.07779C19.8314 7.29114 21.1373 12.1854 18.9247 16.0096Z" fill="#2D2A28"/>
</svg>
