<svg width="24" height="24" viewBox="0 0 24 24" fill="none" xmlns="http://www.w3.org/2000/svg">
<g clip-path="url(#clip0_870_6461)">
<path d="M12.8145 11.2246C12.9055 11.2246 12.9971 11.238 13.0752 11.251C13.0877 11.2513 13.0881 11.2634 13.1006 11.2637C13.0356 11.4457 13.0098 11.6282 13.0098 11.8232C12.9968 12.1356 13.0487 12.5268 13.4258 12.8262V12.8389C13.2994 13.6335 13.0159 14.3337 12.6719 14.6885C12.5165 14.8533 12.3489 14.9482 12.1768 14.9482C11.7863 14.9482 11.5127 14.6095 11.5127 13.9326C11.5127 13.1137 11.6982 12.2587 12.04 11.7373C12.2421 11.4223 12.5021 11.2247 12.8145 11.2246Z" fill="#2D2A28"/>
<path fill-rule="evenodd" clip-rule="evenodd" d="M12 0C18.6274 0 24 5.37258 24 12C24 18.6274 18.6274 24 12 24C5.37258 24 0 18.6274 0 12C0 5.37258 5.37258 0 12 0ZM9.48145 8.41309C9.24754 8.4131 9.05243 8.42548 8.94824 8.43848C8.75312 8.46454 8.67428 8.64763 8.7002 8.84277C8.90842 11.5636 8.30975 14.7139 7.63281 14.7139C7.1254 14.7131 6.98242 13.2423 6.98242 11.9277C6.98243 11.1468 7.02084 10.4041 7.04688 9.74023C7.05967 9.49366 6.96899 9.45472 6.78711 9.42871C6.51381 9.38968 6.33095 9.40204 6.05762 9.4541C5.84958 9.49323 5.79694 9.66273 5.58887 10.1699C4.52694 12.6952 3.50384 14.7191 3.49316 14.7402C3.21987 12.6966 3.5717 10.7174 3.87109 9.27246C3.91003 9.07733 3.81859 8.95996 3.64941 8.95996C3.33699 8.95996 2.86844 8.97305 2.66016 9.11621C2.465 9.24634 2.38703 9.38958 2.33496 9.67578C2.00956 11.3288 1.78775 13.4116 2.12598 15.0127C2.20405 15.364 2.28271 15.4431 2.42578 15.5342C2.56933 15.6252 3.20708 15.7031 3.44141 15.7031C3.71469 15.7031 3.97537 15.6251 4.18359 15.2607C4.62618 14.4927 4.99008 13.7239 5.66699 12.2529C5.73208 14.1664 6.00582 15.6764 7.35938 15.6768C9.12978 15.6898 10.2753 11.2253 10.2754 9.07715C10.2753 8.50458 10.0021 8.41309 9.48145 8.41309ZM17.5664 8.45215C17.202 8.37409 16.8372 8.38677 16.5898 8.46484C16.3687 8.5299 16.3297 8.7643 16.3037 8.89453C16.1735 9.49333 15.9645 10.5484 15.8213 11.4727C15.4959 11.863 15.1182 12.1358 14.7148 12.2139C14.6757 11.4982 14.4152 11.0165 14.0117 10.7432C13.8947 10.6652 13.7641 10.5995 13.6211 10.5605C13.4261 10.4957 13.2049 10.4698 12.958 10.4697C11.2397 10.4698 10.1329 12.0063 10.1328 13.7246C10.1329 15.1172 10.9006 15.7029 12.0068 15.7031C13.3217 15.7031 14.2859 14.7787 14.6504 13.0732C15.0147 12.9951 15.3397 12.8126 15.626 12.5654C15.626 12.5654 15.418 13.6208 15.418 14.2451C15.418 15.1824 15.8222 15.7031 16.7725 15.7031C17.5534 15.7029 18.2306 15.1563 18.6602 14.4795C18.7773 15.3516 19.2327 15.7031 19.9746 15.7031C20.6516 15.7031 21.3158 15.2733 21.7715 14.4922C21.8625 14.3362 21.927 14.206 21.875 14.1279C21.7449 13.9722 21.4854 13.8941 21.4199 14.0234C21.1206 14.583 20.782 14.8045 20.4307 14.8047C20.1443 14.8046 19.9229 14.6353 19.9229 14.1406C19.9231 13.4407 20.3222 11.5434 20.3262 11.5244C20.6256 11.5244 21.0164 11.5111 21.3809 11.498C21.706 11.485 21.927 11.394 21.9922 11.082C22.0311 10.8999 21.9142 10.7826 21.7061 10.7695C21.6958 10.7691 21.1004 10.7428 20.4043 10.7041C20.4072 10.6887 20.5479 9.9332 20.6123 9.62402C20.6512 9.46793 20.5603 9.31156 20.3652 9.27246C20.1699 9.22044 19.7271 9.22038 19.584 9.2334C19.454 9.24646 19.3367 9.32423 19.3105 9.4541C19.2455 9.77951 19.1673 10.1705 19.0762 10.665C18.8159 10.665 18.5686 10.652 18.3994 10.665C18.2434 10.6651 18.165 10.7567 18.126 10.8867C18.087 11.0168 18.0606 11.2122 18.0605 11.4072C18.0477 11.5633 18.2176 11.6282 18.3867 11.6152C18.397 11.6146 18.6029 11.6016 18.9199 11.5889C18.8548 11.8752 18.7383 12.6309 18.6992 13.0996C18.4128 14.076 17.8 14.8047 17.2793 14.8047C16.9543 14.8045 16.7725 14.6093 16.7725 14.0371C16.7725 13.243 16.9542 12.2399 17.2275 11.2246C17.605 10.3134 17.8262 9.31106 17.8262 8.85547C17.8261 8.68637 17.7744 8.49131 17.5664 8.45215Z" fill="#2D2A28"/>
</g>
<defs>
<clipPath id="clip0_870_6461">
<rect width="24" height="24" fill="white"/>
</clipPath>
</defs>
</svg>
