<svg width="145" height="145" viewBox="0 0 145 145" fill="none" xmlns="http://www.w3.org/2000/svg">
<rect width="145" height="145" fill="white"/>
<g clip-path="url(#clip0_864_11350)">
<path d="M28.1437 78.5483C25.7234 79.4871 23.0746 80.0503 20.5173 79.8626C17.5945 79.6279 14.5805 78.3136 12.5711 76.1545C11.2468 74.7933 10.1964 73.1035 9.51139 71.3199C8.3697 68.4566 8.00436 65.2179 8.05003 62.12C8.05003 62.0731 8.05003 61.9792 8.05003 61.9323C7.91303 60.0547 8.05003 58.1772 8.55237 56.3936C9.19172 54.0467 10.5617 51.7936 12.2514 50.0569C15.1285 47.1937 19.2386 45.3631 23.2116 45.0346C25.5407 44.8938 28.0067 45.1754 30.2444 46.0203C31.9798 46.7243 33.5782 47.757 34.9482 49.1182C35.4962 49.6814 36.9576 51.2304 37.0032 52.0283C37.0489 53.4834 35.4505 54.3283 34.0348 54.4691C33.3955 54.563 32.7105 54.563 32.1625 54.3283C31.8428 54.1875 31.5688 54.0467 31.3861 53.765C30.9751 53.2957 30.5641 52.7793 30.1074 52.3569C26.2714 49.0243 20.6543 50.5263 17.4575 54.5161C15.9962 56.2997 14.9458 58.6466 14.8545 60.9935C14.7175 63.9975 15.3112 67.1893 16.7725 69.7709C17.7315 71.5076 19.1929 73.0566 20.9283 73.9015C22.8463 74.7463 25.2667 74.6994 27.1847 73.8076C28.5091 73.2443 31.3861 71.3668 31.7515 69.9117C32.1168 68.222 30.9751 66.5791 29.3311 66.2975C28.9657 66.2036 27.002 66.1097 26.6367 65.9689C26.1344 65.8281 25.5864 65.4057 25.4037 64.8894C25.1753 64.0445 25.4037 63.0588 25.8604 62.3078C25.9974 62.0731 26.454 61.5098 26.728 61.4629C27.9611 61.2282 33.6238 61.2751 34.9025 61.369C35.6332 61.4629 36.4096 61.5568 37.0489 61.8853C37.2772 62.0261 37.9166 62.4955 38.0536 62.7771C38.0993 62.871 38.1906 62.9649 38.1906 63.0588C38.1449 63.2935 38.1906 63.4812 38.2363 63.669C38.2819 65.171 38.1906 66.673 38.1906 68.175C38.1449 71.0852 38.0079 74.0423 37.6882 76.9524C37.6426 77.234 37.6882 77.4687 37.5969 77.7504C37.5056 78.1259 37.1859 78.4544 36.8662 78.6422C36.3639 78.8769 35.0395 78.9238 34.5372 78.7361C34.1718 78.5952 33.8065 78.3606 33.5325 78.1259C33.3042 77.8912 32.4365 77.9381 32.1168 77.9381C30.7924 77.8912 29.3768 78.0789 28.1437 78.5483ZM65.9747 79.0646C65.655 79.2054 65.3354 79.1585 64.97 79.1585C58.1199 79.1585 51.2698 79.1585 44.4196 79.1585C43.689 79.1585 43.0039 78.2667 42.8213 77.5626C42.6843 77.1871 42.5929 76.7647 42.5929 76.3422C42.5929 67.2363 42.5929 58.1772 42.5929 49.1182C42.5929 48.8835 42.6386 47.9917 42.7299 47.757C43.0953 46.959 44.237 46.0672 45.059 46.0672C47.251 46.0672 60.8599 46.0672 63.052 46.0672C64.3307 46.0203 65.7007 46.959 65.8377 48.2733C66.0204 49.8223 64.7873 51.0426 63.2803 51.2304C62.9607 51.2773 62.6866 51.2304 62.367 51.2304C58.8506 51.2304 55.2885 51.2304 51.7264 51.2304C51.3611 51.2304 50.4934 51.7936 50.2194 52.0753C49.7627 52.5447 49.4431 53.2018 49.3061 53.9059C48.9864 55.4079 49.4431 57.3323 50.5848 58.365C51.0414 58.7874 51.6351 59.1629 52.2288 59.1629C55.2885 59.1629 58.3482 59.1629 61.4079 59.1629C62.1386 59.1629 62.915 59.2099 63.6 59.4915C64.1023 59.6792 64.5133 60.0547 64.833 60.4772C65.518 61.2751 65.2897 62.918 64.559 63.622C64.0567 64.1383 63.189 64.3261 62.504 64.2792C61.1796 64.2322 53.5531 64.2792 52.2288 64.2792C51.5894 64.2792 50.4477 65.171 50.0824 65.6873C49.3061 66.7199 48.9864 68.175 49.0777 69.4893C49.1691 70.475 49.4887 71.5076 49.9911 72.3525C50.4021 73.1504 51.8178 74.3708 52.7311 74.3708C56.8412 74.3708 60.9969 74.3708 65.107 74.3708C65.381 74.3708 65.6094 74.3708 65.8377 74.4178C67.6644 75.0749 67.7557 78.3606 65.9747 79.0646ZM90.6882 78.5483C88.8159 79.4401 86.7152 79.7687 84.6601 79.7218C82.6508 79.6279 80.6414 79.534 78.7234 78.8769C76.166 77.9381 73.7913 76.2014 72.0559 74.0423C71.5992 73.4321 71.1425 72.728 70.9142 71.9301C70.5945 70.8035 70.6859 69.5832 70.5489 68.4097C70.5489 68.3628 70.5032 68.222 70.5032 68.175C70.5032 61.6037 70.5032 55.0324 70.5032 48.508C70.5032 47.4754 70.9599 46.6774 71.8276 46.1142C72.3299 45.8325 74.0196 45.5509 74.6133 45.6448C75.6636 45.7856 76.8053 46.3488 77.3077 47.2876C77.5817 47.71 77.81 48.2264 77.81 48.7427C77.81 55.3609 77.81 61.9323 77.81 68.5505C77.81 68.8791 77.8557 69.2546 77.9927 69.5832C78.5864 70.8035 79.591 71.9301 80.6414 72.7749C82.0114 73.8076 83.9295 74.23 85.6191 74.0423C86.4868 73.9484 87.3545 73.5259 88.0395 72.9158C88.9072 72.1647 90.9166 70.1464 90.9166 68.973C90.9166 62.6363 90.9166 56.2997 90.9166 49.9161C90.9166 49.7753 90.8252 48.8835 90.7796 48.7427C90.7339 47.6162 91.4189 46.4897 92.4236 45.9264C93.3826 45.4101 95.7117 45.457 96.6707 45.9733C97.5384 46.4427 98.132 47.5223 98.132 48.4611C98.132 55.5018 98.132 62.5894 98.132 69.6301C98.132 69.724 98.0407 70.0525 97.995 70.1464C97.721 71.226 97.31 72.2586 96.6707 73.1504C96.488 73.4321 95.255 74.981 95.0723 75.2157C94.3416 76.1545 93.5196 76.9994 92.5149 77.5626C92.2866 77.7034 90.9166 78.4544 90.6882 78.5483ZM136.452 77.9381C135.995 78.6891 134.762 79.3932 133.986 79.1585C133.118 78.8769 132.296 78.1728 131.977 77.3279C131.931 77.1402 131.931 76.9055 131.931 76.6708C131.931 70.7566 131.931 64.8894 131.931 58.9752C131.931 58.4119 131.109 56.9099 130.744 56.4875C130.378 56.1119 129.648 55.7834 129.191 56.0181C128.46 56.3466 127.638 58.1772 127.41 58.9282C125.811 64.8894 124.259 70.8035 122.66 76.7647C122.432 77.5626 121.153 78.4075 120.377 78.5953C119.601 78.7361 118.733 78.4075 117.957 78.032C117.409 77.7034 116.769 77.3279 116.587 76.7177C114.943 70.6627 113.344 64.6547 111.7 58.6466C111.426 57.6609 110.924 56.5344 110.011 56.065C109.919 56.0181 109.691 55.8773 109.599 55.9242C108.96 56.1119 108.412 56.7691 108.229 57.4262C108.138 57.614 107.955 58.4588 107.955 58.6466C107.955 64.373 107.955 70.0995 107.955 75.8259C107.955 76.2953 107.818 76.7647 107.59 77.1871C107.362 77.5626 106.311 78.4075 105.9 78.5483C104.759 79.0177 103.526 78.2197 103.115 77.0463C102.978 76.6239 102.932 76.2014 102.932 75.732C102.978 72.4933 102.978 52.6385 102.978 49.3529C102.978 49.259 102.886 48.6488 102.886 48.5549C102.886 48.0386 103.023 47.5223 103.297 47.1468C103.754 46.5366 104.576 46.208 105.307 46.1142C106.448 45.9733 107.59 46.1142 108.732 46.208C109.463 46.3019 110.193 46.4427 110.924 46.6774C111.609 46.959 112.431 47.71 112.796 48.3672C112.888 48.4611 112.979 48.9304 112.979 49.0243C114.44 54.8446 115.856 60.7119 117.317 66.5322C117.591 67.5648 118.094 68.6913 119.007 69.2546C119.372 69.4423 119.92 69.5362 120.286 69.3485C120.925 69.0199 121.336 68.2689 121.656 67.6118C121.747 67.4709 122.021 66.8138 122.067 66.673C123.665 60.618 125.309 54.563 126.953 48.508C127.09 47.8978 127.684 47.4284 128.232 47.1937C128.963 46.8652 129.739 46.6305 130.515 46.5366C130.881 46.4897 133.118 46.5366 133.529 46.4897C134.306 46.4427 135.128 46.5366 135.904 46.7243C136.361 46.8652 136.68 47.2876 136.909 47.71C137 47.9447 137 48.2733 137 48.5549C137 57.7078 137 66.9077 137 76.1075C137 76.483 137 76.9055 136.863 77.2341C136.817 77.3749 136.543 77.8442 136.452 77.9381Z" fill="#2D2A28"/>
<path d="M53.5008 100.636C52.9778 100.835 52.3893 100.946 51.8445 100.879C51.2996 100.791 50.7548 100.547 50.2971 100.237C50.2535 100.215 50.0356 100.193 49.992 100.171C49.7087 100.126 49.36 100.082 49.1203 100.237C48.9241 100.348 48.7062 100.459 48.4882 100.525C47.878 100.658 46.8755 100.702 46.5486 100.149C46.4396 99.9271 46.4614 99.6392 46.4614 99.3956C46.4614 95.3209 46.4614 91.2463 46.4614 87.1937C46.4614 86.8615 46.6575 86.5294 46.9191 86.33C47.246 86.0422 48.0524 85.8871 48.4446 86.0865C48.7062 86.1972 49.0113 86.3522 49.1203 86.6179C49.2292 86.9058 49.1856 88.0574 49.1638 88.3674C49.142 88.5446 49.0985 89.1425 49.142 89.2753C49.2074 89.4304 49.251 89.5854 49.3382 89.7404C49.4472 89.9397 49.5997 90.2054 49.8177 90.2719C50.1664 90.3605 51.4522 89.8068 51.8009 89.7404C52.2804 89.6518 52.7816 89.7182 53.2393 89.829C54.1546 90.0726 55.0046 90.6262 55.6584 91.3127C56.0943 91.7556 56.4212 92.3757 56.5738 92.9957C56.6827 93.4829 56.7481 93.9922 56.7917 94.5016C56.8353 95.2324 56.8353 95.9632 56.7045 96.6497C56.5738 97.4026 56.3994 98.1555 56.0507 98.842C55.7892 99.3735 55.3751 99.8828 54.8302 100.126C54.6777 100.193 53.6752 100.569 53.5008 100.636ZM49.2074 95.786C49.4254 97.3804 50.5804 99.0192 52.0624 98.4213C52.6945 98.1555 53.1957 97.5355 53.479 96.8933C53.8931 95.9189 53.9803 94.723 53.697 93.7044C53.5226 93.1286 53.2611 92.5307 52.8252 92.1321C52.4983 91.822 52.0842 91.6006 51.6483 91.6006C51.1253 91.5784 50.6022 91.8442 50.2317 92.2206C49.3818 93.0843 49.0549 94.5459 49.2074 95.786ZM61.6054 86.6401C61.8887 87.5923 60.8426 88.2345 59.8837 88.1681C58.9247 88.0795 57.9876 87.3044 58.3799 86.4186C58.7504 85.5993 59.8401 85.4 60.6465 85.71C61.0605 85.8871 61.4964 86.2193 61.6054 86.6401ZM60.3631 100.459C59.9273 100.503 59.4478 100.481 59.0555 100.281C58.8158 100.171 58.576 100.016 58.4453 99.7721C58.3363 99.5507 58.2927 99.2849 58.2927 99.0413C58.2927 96.2289 58.2927 93.4386 58.2927 90.6483C58.2927 90.1833 58.7504 89.6518 59.1863 89.5411C59.4696 89.4747 59.7529 89.4968 60.0362 89.4968C60.799 89.4968 61.7144 89.8511 61.7144 90.6262C61.7144 93.4608 61.7144 96.2732 61.7144 99.0856C61.7144 99.1299 61.7144 99.1742 61.7144 99.2406C61.6926 99.7057 61.3221 100.237 60.8644 100.392C60.7118 100.436 60.5375 100.436 60.3631 100.459ZM69.1278 100.746C67.7112 101.057 66.251 100.879 64.9652 100.215C64.3114 99.905 63.1781 99.0192 63.1781 98.3105C63.1781 98.1334 63.2435 97.9784 63.3525 97.8455C63.6794 97.4026 64.5075 97.0926 65.0088 97.2919C65.1396 97.3583 65.2267 97.4912 65.3357 97.5797C65.7062 97.8676 66.1639 98.0448 66.6215 98.1334C67.21 98.2884 67.8638 98.3327 68.4522 98.1777C68.9099 98.0891 69.4765 97.7569 69.4329 97.2919C69.3894 96.9154 69.0625 96.5832 68.7573 96.4061C68.1035 96.0517 67.2971 96.0296 66.5779 95.8524C65.728 95.631 64.8998 95.2102 64.2678 94.5902C63.7883 94.103 63.396 93.4386 63.3307 92.7521C63.2653 92.1985 63.3743 91.6449 63.6576 91.1355C64.0281 90.4933 64.6601 90.0061 65.3139 89.674C66.36 89.1646 67.6023 89.0317 68.7573 89.1868C69.8252 89.2975 70.9367 89.7847 71.7431 90.5376C72.3097 91.0469 71.7213 91.8663 71.0021 92.0435C70.6316 92.1542 70.1739 92.0435 69.847 91.822C69.6509 91.7113 68.8445 91.4456 68.6266 91.4234C67.9728 91.3348 67.0356 91.2463 66.9049 91.8885C66.8395 92.1985 66.8395 92.575 67.0356 92.8186C67.3843 93.195 67.9728 93.3279 68.474 93.3722C69.5201 93.4608 70.588 93.8594 71.3944 94.5237C71.961 94.9666 72.4187 95.6088 72.6367 96.2953C72.811 96.8711 72.7674 97.5576 72.5713 98.1112C72.3097 98.8199 71.8085 99.4399 71.1982 99.8607C70.5662 100.281 69.8688 100.591 69.1278 100.746ZM78.5728 100.968C77.7011 101.057 76.764 100.902 76.0448 100.436C75.5653 100.149 75.2166 99.6171 75.064 99.1078C75.0204 98.997 74.9333 98.5984 74.9333 98.4877C74.9333 96.6718 74.9333 94.8559 74.9333 93.0179C74.9333 92.6635 73.8654 91.8442 73.691 91.512C73.582 91.2905 73.6256 91.0027 73.691 90.7591C73.8872 90.1833 74.4538 89.8068 74.7153 89.2753C74.9551 88.7882 74.9115 88.1902 75.0422 87.6588C75.1076 87.4373 75.3038 87.2159 75.4999 87.1051C76.023 86.8615 76.6114 86.7287 77.178 86.7729C77.4831 86.7951 77.8318 86.9501 77.9844 87.2159C78.0934 87.393 78.1152 88.1238 78.1152 88.3231C78.1152 88.5224 78.0934 89.231 78.1806 89.4082C78.2241 89.4968 78.3113 89.5632 78.3985 89.6075C78.6382 89.7404 79.6189 90.294 79.7933 90.4933C80.033 90.8033 80.033 91.2684 79.7933 91.5784C79.5972 91.822 79.292 91.9549 79.0305 92.1099C78.6818 92.3535 78.3767 92.73 78.2459 93.1507C78.2459 93.195 78.2023 93.35 78.2023 93.3943C78.2023 94.6123 78.2023 95.8524 78.2023 97.0926C78.2023 97.4247 78.551 98.0005 78.8562 98.1555C79.2267 98.3327 79.6407 98.5098 79.8805 98.842C80.0548 99.0635 80.033 99.4178 80.0548 99.7057C80.0548 99.9936 79.9459 100.304 79.7715 100.525C79.51 100.857 78.9869 100.902 78.5728 100.968ZM83.9986 100.392C83.4973 100.746 82.3858 100.658 81.8846 100.326C81.6013 100.149 81.2744 99.5285 81.2744 99.1963C81.2744 98.1777 81.2962 91.8442 81.2962 90.8476C81.2962 90.604 81.5359 90.0283 81.7102 89.8733C81.9064 89.6961 82.1897 89.6075 82.4294 89.5632C82.7346 89.5411 83.0397 89.5411 83.3448 89.5854C83.5845 89.6075 83.8242 89.6518 83.9986 89.7847C84.1076 89.8733 84.173 89.984 84.2819 90.0726C84.4563 90.2054 84.7178 90.1833 84.9357 90.2054C85.3716 90.2054 86.8318 89.9618 87.2023 90.1833C87.2895 90.2276 87.3767 90.3383 87.3984 90.449C87.5074 90.7591 87.3984 91.6892 87.2677 91.9992C87.1805 92.1985 86.9844 92.3535 86.7882 92.4421C86.3741 92.6635 85.9165 92.7743 85.5242 93.0179C85.0883 93.3279 84.6524 93.7486 84.5217 94.258C84.4999 94.3687 84.5434 95.0109 84.5434 95.1216C84.5434 95.2545 84.4563 95.9632 84.4563 96.0739C84.4563 97.159 84.4563 98.2441 84.4563 99.3292C84.4563 99.6171 84.2383 100.237 83.9986 100.392ZM94.4184 100.813C93.6338 100.946 92.8274 100.813 92.0428 100.658C91.2583 100.503 90.4737 100.149 89.8852 99.6171C89.275 99.0856 88.8173 98.3327 88.5558 97.5576C88.011 96.0296 88.0981 94.1916 88.6648 92.6857C89.0571 91.6227 89.8416 90.6262 90.8006 90.0504C91.5852 89.5854 92.5659 89.4304 93.4812 89.3418C93.8299 89.2975 94.1786 89.2975 94.5273 89.3418C94.8978 89.4082 95.2683 89.4525 95.6388 89.5632C98.5592 90.449 99.7797 94.0365 99.0387 97.0261C98.8207 97.8455 98.4502 98.6649 97.9054 99.3071C97.5785 99.6835 97.1862 99.9936 96.7721 100.237C96.1183 100.614 95.3555 100.791 94.6145 100.813C94.5927 100.813 94.4402 100.813 94.4184 100.813ZM91.5634 97.0261C92.762 98.4213 94.876 98.3991 96.0311 97.004C97.4913 95.2545 96.4888 92.5085 94.2658 92.1763C91.5634 91.7556 89.7981 94.9445 91.5634 97.0261Z" fill="#2D2A28"/>
</g>
<defs>
<clipPath id="clip0_864_11350">
<rect width="129" height="56" fill="white" transform="translate(8 45)"/>
</clipPath>
</defs>
</svg>
